<?xml version="1.0" standalone="no"?>
<!DOCTYPE svg PUBLIC "-//W3C//DTD SVG 20010904//EN"
 "http://www.w3.org/TR/2001/REC-SVG-20010904/DTD/svg10.dtd">
<svg version="1.0" xmlns="http://www.w3.org/2000/svg"
 width="320.000000pt" height="320.000000pt" viewBox="0 0 320.000000 320.000000"
 preserveAspectRatio="xMidYMid meet">
<metadata>
Created by potrace 1.16, written by Peter Selinger 2001-2019
</metadata>
<g transform="translate(0.000000,320.000000) scale(0.100000,-0.100000)"
fill="white" stroke="none">
<path d="M936 2351 c-497 -498 -614 -610 -641 -615 -35 -7 -105 -57 -130 -93
-14 -20 -13 -22 30 -48 l46 -26 -26 -31 c-35 -42 -67 -106 -56 -112 5 -4 42
-1 83 5 86 14 165 3 182 -23 9 -14 0 -39 -42 -123 l-52 -106 32 -13 c85 -35
214 -78 328 -111 68 -20 125 -37 127 -38 1 -1 167 -166 367 -366 201 -200 369
-362 375 -360 6 2 174 167 373 366 l363 363 127 34 c126 35 335 109 350 124 5
5 -15 57 -43 117 -49 101 -51 109 -34 121 29 21 104 28 184 15 41 -6 76 -9 78
-7 9 9 -9 47 -43 91 -19 25 -34 49 -34 53 0 5 18 17 40 28 22 10 40 24 40 31
0 21 -91 92 -138 107 -42 14 -117 86 -652 621 -333 333 -609 605 -615 605 -5
0 -284 -274 -619 -609z m699 499 l70 -70 -42 -42 -42 -42 -19 23 c-24 31 -66
31 -91 0 l-20 -24 -42 41 -41 41 71 72 c39 39 74 71 79 71 4 0 39 -32 77 -70z
m-45 -201 c0 -34 4 -51 15 -55 8 -3 17 -14 20 -24 3 -10 18 -21 32 -25 15 -3
39 -15 55 -26 22 -16 28 -28 28 -57 0 -37 -33 -179 -44 -190 -3 -3 1 -16 10
-30 8 -13 13 -31 10 -39 -4 -10 2 -21 14 -30 22 -16 26 -53 8 -71 -7 -7 -25
-12 -41 -12 l-30 0 7 -105 7 -105 -37 25 c-27 18 -50 25 -85 25 l-49 0 0 75
c0 41 -4 75 -9 75 -5 0 -12 -38 -16 -84 -5 -67 -11 -88 -27 -103 l-21 -18 7
108 7 107 -29 0 c-15 0 -33 5 -40 12 -18 18 -14 56 7 70 10 6 17 18 14 25 -3
7 0 27 7 43 10 23 9 38 -3 77 -9 26 -20 72 -26 102 -14 65 0 93 57 119 20 10
49 29 65 43 22 22 27 35 27 77 0 53 11 66 43 50 13 -6 17 -21 17 -59z m-288
-86 c43 -43 48 -52 48 -92 0 -42 -4 -50 -62 -108 l-62 -63 59 -60 c54 -55 59
-63 60 -107 2 -41 -3 -53 -28 -80 -29 -31 -31 -32 -101 -26 -68 5 -73 7 -119
51 l-47 47 -82 -82 -82 -82 33 -31 32 -31 -27 -25 c-23 -22 -26 -31 -21 -70 3
-31 13 -52 31 -69 14 -13 26 -27 26 -32 0 -4 -16 -23 -35 -43 l-35 -36 25 -24
c14 -13 25 -33 25 -44 0 -12 9 -41 20 -65 27 -59 26 -65 -14 -58 -75 12 -196
50 -196 61 0 7 16 25 35 41 20 15 34 34 31 41 -3 8 0 11 8 8 7 -3 21 5 31 16
18 20 17 21 -56 99 -41 43 -78 79 -84 80 -5 0 -33 -22 -61 -50 l-52 -52 -49
12 c-68 18 -141 50 -147 67 -3 8 28 48 80 100 l86 87 71 -72 72 -71 80 80 79
80 -67 68 c-37 37 -67 71 -67 75 0 4 38 45 84 91 l83 84 72 -72 71 -71 82 82
83 83 -68 68 c-37 37 -67 71 -67 75 0 11 153 165 165 166 5 1 31 -20 57 -46z
m658 -38 l84 -85 -52 -53 c-28 -29 -66 -58 -83 -64 -30 -12 -33 -10 -85 40
-47 46 -53 57 -56 99 -3 45 0 50 46 98 27 27 51 50 55 50 4 0 44 -38 91 -85z
m5 -241 c9 -9 13 -24 10 -34 -4 -13 1 -23 17 -31 13 -6 27 -18 31 -25 4 -8 17
-14 27 -14 25 0 25 -7 2 -45 -10 -16 -24 -45 -30 -64 -11 -31 -10 -36 9 -49
13 -9 19 -21 16 -33 -3 -10 2 -20 10 -23 24 -10 12 -59 -16 -66 -23 -5 -25 -9
-22 -70 3 -99 29 -262 52 -327 32 -92 36 -86 -76 -105 -142 -23 -181 -25 -176
-7 40 145 62 307 60 432 l-2 72 -8 -60 c-4 -33 -12 -103 -18 -155 -18 -164
-58 -290 -93 -290 -23 0 -23 -3 6 61 30 66 62 222 72 346 l7 92 -26 6 c-33 9
-44 40 -23 64 9 10 16 27 16 40 0 12 7 24 16 28 21 8 12 55 -21 105 -30 45
-30 48 -7 48 11 0 27 9 37 20 10 11 26 22 35 25 12 4 16 12 13 25 -11 43 48
68 82 34z m345 -250 l-72 -70 84 -82 83 -81 70 69 70 70 88 -88 c85 -85 87
-89 69 -105 -21 -19 -106 -51 -163 -62 -32 -6 -38 -3 -76 38 -23 25 -47 48
-53 52 -8 5 -42 -23 -91 -71 l-79 -79 66 -66 c45 -45 62 -69 54 -74 -20 -13
-183 -55 -211 -55 -21 0 -29 7 -38 32 -11 30 -9 33 49 94 33 34 60 65 60 68 0
15 -149 156 -164 156 -10 0 -16 6 -13 13 2 6 9 11 14 10 5 -1 45 34 89 78 l79
79 -79 79 -79 80 29 38 c16 21 46 57 68 81 l40 43 88 -89 89 -88 -71 -70z
m-1138 -25 c146 6 251 -115 234 -270 -7 -75 -35 -134 -97 -204 -27 -31 -49
-59 -49 -62 0 -4 16 -21 35 -39 44 -40 47 -68 8 -60 -16 2 -74 10 -130 17 -57
7 -103 15 -103 19 0 4 6 13 13 19 11 9 7 19 -25 51 -30 33 -38 49 -38 78 0 43
13 64 78 128 l47 46 -61 -46 c-65 -50 -84 -78 -84 -127 0 -35 13 -64 44 -97
20 -23 20 -24 3 -37 -21 -15 -55 -9 -38 8 7 7 2 22 -15 46 -45 66 -28 151 41
201 11 8 36 29 55 47 29 27 33 34 20 43 -24 16 -47 12 -79 -16 -24 -20 -38
-25 -59 -19 l-27 7 28 24 c15 13 25 24 21 24 -4 0 -16 -8 -27 -17 -18 -17 -20
-17 -33 2 -25 33 -13 66 36 100 82 59 122 103 115 126 -6 19 -4 21 11 14 11
-5 44 -8 76 -6z m442 -114 c60 -29 84 -111 52 -174 -17 -31 -15 -76 2 -93 17
-17 15 -46 -5 -56 -15 -9 -15 -16 -4 -65 7 -31 23 -72 37 -93 14 -20 22 -39
19 -43 -8 -8 -220 -15 -239 -8 -12 5 -12 12 -1 44 7 21 15 58 19 83 7 52 6 50
-24 -47 -20 -64 -25 -73 -46 -73 -29 0 -29 4 -5 38 10 15 27 53 37 84 16 54
16 59 1 76 -18 20 -22 48 -8 56 17 11 19 70 3 94 -8 13 -15 42 -15 66 0 96 89
152 177 111z m-1158 -199 c32 -13 77 -27 99 -31 61 -11 61 -16 1 -40 -77 -31
-85 -39 -84 -88 1 -23 -4 -55 -10 -70 -11 -26 -15 -28 -45 -20 -17 4 -76 8
-129 8 -54 0 -98 1 -98 4 0 6 46 66 66 85 22 22 12 43 -31 63 -19 9 -35 20
-35 23 0 13 56 60 90 74 51 22 108 19 176 -8z m2382 5 c43 -22 82 -54 82 -67
0 -5 -18 -20 -40 -34 -37 -23 -53 -50 -30 -50 10 0 70 -77 70 -89 0 -3 -44 -6
-97 -6 -54 0 -112 -4 -129 -8 -30 -8 -31 -7 -44 36 -6 25 -9 54 -5 65 8 29
-21 56 -84 79 -54 19 -66 33 -28 33 12 0 58 13 102 29 96 35 152 38 203 12z
m-2118 -131 c0 -54 -3 -70 -14 -70 -17 0 -178 60 -190 70 -12 12 30 31 109 51
101 25 95 28 95 -51z m1755 55 c33 -7 78 -21 100 -30 l39 -17 -28 -15 c-35
-19 -164 -63 -183 -63 -9 0 -13 17 -13 63 0 59 5 77 19 77 3 0 33 -7 66 -15z
m-1785 -145 c270 -90 484 -127 790 -137 356 -11 697 42 1007 156 61 23 113 41
116 41 3 0 8 -12 12 -27 9 -38 80 -214 110 -273 l25 -49 -78 -30 c-325 -125
-663 -189 -1043 -198 -331 -8 -569 20 -887 102 -123 33 -348 109 -364 124 -4
4 14 56 41 116 27 61 56 133 65 160 9 28 19 56 21 64 3 8 12 10 23 6 9 -4 82
-29 162 -55z m617 -612 l82 -82 80 77 c60 58 83 76 97 71 11 -4 52 -39 92 -78
l73 -71 57 60 c32 33 70 70 83 83 l26 22 74 -70 73 -70 -84 -85 c-47 -47 -90
-85 -96 -85 -7 0 -40 30 -74 67 l-61 67 -82 -82 -82 -82 70 -70 69 -70 -69
-70 c-38 -38 -72 -70 -76 -70 -4 0 -39 32 -78 70 l-71 71 72 68 73 69 -83 83
-82 83 -68 -67 c-37 -37 -71 -67 -75 -67 -5 0 -32 24 -60 54 -29 30 -65 69
-82 86 l-29 30 69 70 c38 39 72 70 75 70 2 0 42 -37 87 -82z"/>
</g>
</svg>
